<svg width="44" height="44" viewBox="0 0 44 44" fill="none" xmlns="http://www.w3.org/2000/svg">
<g clip-path="url(#clip0)">
<path d="M21.9185 43.814C34.011 43.814 43.8139 34.0111 43.8139 21.9186C43.8139 9.82614 34.011 0.0232544 21.9185 0.0232544C9.82607 0.0232544 0.0231934 9.82614 0.0231934 21.9186C0.0231934 34.0111 9.82607 43.814 21.9185 43.814Z" fill="#235390"/>
<path d="M43.8139 21.9186C43.8139 21.4909 43.8003 21.0665 43.7761 20.6449L31.5598 8.42857L30.9846 10.1156L29.1638 10.0301L24.6319 5.49707L5.49707 24.6319L10.0301 29.1638L12.2541 35.3853L20.6449 43.7761C21.0665 43.8003 21.4909 43.8139 21.9186 43.8139C34.0111 43.8139 43.8139 34.0111 43.8139 21.9186Z" fill="#235390"/>
<path d="M38.3401 24.6319V19.2052L33.8882 18.32C33.6382 17.5117 33.3302 16.742 32.926 15.9914L35.4086 12.2774L31.5598 8.42857L27.8457 10.9111C27.0952 10.507 26.3254 10.199 25.5172 9.94893L24.6319 5.49707H19.2052L18.32 9.94893C17.5117 10.199 16.742 10.507 15.9914 10.9111L12.2774 8.42857L8.42857 12.2774L10.9111 15.9914C10.507 16.742 10.199 17.5118 9.94893 18.32L5.49707 19.2053V24.632L9.94893 25.5172C10.199 26.3254 10.507 27.0952 10.9111 27.8457L8.42857 31.5598L12.2774 35.4086L15.9914 32.926C16.742 33.3302 17.5118 33.6382 18.32 33.8882L19.2053 38.3401H24.632L25.5172 33.8882C26.3254 33.6382 27.0952 33.3302 27.8457 32.926L31.5598 35.4086L35.4086 31.5598L32.926 27.8457C33.3302 27.0952 33.6382 26.3254 33.8882 25.5172L38.3401 24.6319ZM21.9186 28.654C18.2045 28.654 15.1832 25.6327 15.1832 21.9186C15.1832 18.2045 18.2045 15.1832 21.9186 15.1832C25.6327 15.1832 28.654 18.2045 28.654 21.9186C28.654 25.6327 25.6327 28.654 21.9186 28.654Z" fill="white"/>
<path d="M33.8881 25.5172C33.638 26.3254 33.33 27.0952 32.9259 27.8457L35.4085 31.5598L31.5597 35.4086L27.8456 32.926C27.0951 33.3302 26.3252 33.6382 25.5171 33.8882L24.6318 38.3401H21.9185V28.654C25.6325 28.654 28.6538 25.6327 28.6538 21.9186C28.6538 18.2045 25.6325 15.1832 21.9185 15.1832V5.49707H24.6318L25.517 9.94893C26.3252 10.199 27.095 10.507 27.8455 10.9111L31.5596 8.42857L35.4084 12.2774L32.9259 15.9914C33.33 16.742 33.638 17.5118 33.8881 18.32L38.34 19.2053V24.632L33.8881 25.5172Z" fill="white"/>
</g>
<defs>
<clipPath id="clip0">
<rect width="43.7907" height="43.7907" fill="white" transform="translate(0.0231934 0.0232544)"/>
</clipPath>
</defs>
</svg>
