<svg width="45" height="44" viewBox="0 0 45 44" fill="none" xmlns="http://www.w3.org/2000/svg">
<path d="M22.8519 43.885C34.9444 43.885 44.7472 34.0821 44.7472 21.9896C44.7472 9.89715 34.9444 0.0942688 22.8519 0.0942688C10.7594 0.0942688 0.956543 9.89715 0.956543 21.9896C0.956543 34.0821 10.7594 43.885 22.8519 43.885Z" fill="#235390"/>
<path d="M10.1013 29.3883L12.7401 32.0419C12.764 32.1353 14.6173 37.2561 14.6173 37.2561L21.1834 43.8221C21.7336 43.8635 22.2892 43.8848 22.8499 43.8848C34.9424 43.8848 44.7452 34.0819 44.7452 21.9895C44.7452 21.4287 44.5725 27.5661 44.5235 25.1174L31.4516 10.2598L10.1013 29.3883Z" fill="#235390"/>
<path d="M36.9251 22.185C36.9251 18.3562 34.7748 15.0929 31.7601 13.839V13.8382C31.8513 13.3928 31.0828 13.1065 31.0732 12.6316C31.066 12.2845 31.8417 11.7671 31.7785 11.4353C31.2475 8.61171 28.791 6.43746 25.8355 6.3527C24.9639 6.32711 24.1315 6.48144 23.3726 6.78051C22.908 6.96363 22.4706 7.89067 22.0684 8.17374C21.6661 7.89067 21.2287 6.96363 20.7641 6.78051C20.0053 6.48144 19.1728 6.32711 18.3012 6.3527C15.3457 6.43746 12.8892 8.61171 12.3582 11.4353C12.295 11.7671 12.8884 12.4644 12.8812 12.8115C12.8716 13.2865 12.2854 13.3928 12.3766 13.8382V13.839C9.36193 15.0929 7.21167 18.3562 7.21167 22.185C7.21167 26.0137 9.36193 29.2771 12.3766 30.5309C12.2854 30.9763 12.6461 31.3769 12.6557 31.8519C12.6629 32.199 12.295 32.602 12.3574 32.9339C12.8884 35.7574 15.3457 37.9317 18.3012 38.0172C19.1728 38.0428 20.0053 37.8885 20.7641 37.5894C21.2287 37.4063 21.6661 35.979 22.0684 35.6959C22.4706 35.979 22.908 37.4063 23.3726 37.5894C24.1315 37.8885 24.9639 38.0428 25.8355 38.0172C28.791 37.9317 31.2483 35.7574 31.7793 32.9339C31.8417 32.602 31.6362 32.259 31.6434 31.9119C31.653 31.4369 31.8513 30.9763 31.7601 30.5309C34.7748 29.2771 36.9251 26.0137 36.9251 22.185Z" fill="#1E90FF"/>
<path d="M36.9253 22.1848C36.9253 18.3561 34.775 15.0927 31.7604 13.8389C31.8515 13.3934 31.0831 13.1064 31.0735 12.6314C31.0663 12.2843 31.8419 11.767 31.7788 11.4351C31.2478 8.61154 28.7913 6.43729 25.8358 6.35253C24.9641 6.32694 24.1317 6.48127 23.3728 6.78034C22.9082 6.96346 22.4708 7.89026 22.0686 8.17333V35.6957C22.4708 35.9788 22.9082 37.4061 23.3728 37.5892C24.1317 37.8883 24.9641 38.0427 25.8358 38.0171C28.7913 37.9315 31.2486 35.7573 31.7796 32.9337C31.8419 32.6018 31.6364 32.2588 31.6436 31.9117C31.6532 31.4367 31.8515 30.9761 31.7604 30.5307C34.775 29.2769 36.9253 26.0135 36.9253 22.1848Z" fill="#FEBE40"/>
<path d="M31.761 13.8383L31.0077 13.7903C30.8222 13.7783 30.6975 13.8703 30.6399 13.9262C30.5831 13.9822 30.488 14.1038 30.4952 14.2901L30.5623 16.0261H28.165L28.0978 14.3828C28.0666 13.5688 28.3825 12.7763 28.9654 12.2086C29.5044 11.6832 30.2289 11.3897 30.9773 11.3897C31.0381 11.3905 31.0997 11.3921 31.1605 11.3961L31.7794 11.4353C31.8426 11.7672 31.8786 12.1078 31.8858 12.4549C31.8953 12.9299 31.8522 13.3929 31.761 13.8383Z" fill="#FF127F"/>
<path d="M16.0405 14.383L15.9733 16.0262H13.576L13.6431 14.2902C13.6503 14.1039 13.5552 13.9823 13.4984 13.9264C13.4408 13.8704 13.3161 13.7784 13.1305 13.7904L12.3773 13.8384C12.2861 13.393 12.2429 12.93 12.2525 12.455C12.2597 12.108 12.2957 11.7673 12.3589 11.4355L12.9778 11.3963C13.0386 11.3923 13.1002 11.3907 13.1609 11.3899C13.9094 11.3899 14.6339 11.6833 15.1729 12.2087C15.7558 12.7765 16.0717 13.5689 16.0405 14.383Z" fill="#FF127F"/>
<path d="M31.8858 31.9154C31.8786 32.2625 31.8426 32.6023 31.7802 32.9342L31.1605 32.9733C31.0997 32.9773 31.0381 32.9797 30.9773 32.9797C30.2289 32.9797 29.5044 32.6871 28.9654 32.1609C28.3825 31.5932 28.0666 30.8007 28.0978 29.9867L28.165 28.2506H30.5623L30.4952 30.0802C30.488 30.2665 30.5831 30.3881 30.6399 30.4441C30.6975 30.4992 30.8222 30.5912 31.0077 30.5792L31.761 30.5312C31.8522 30.9766 31.8953 31.4404 31.8858 31.9154Z" fill="#FF127F"/>
<path d="M15.1729 32.1608C14.6339 32.6869 13.9094 32.9796 13.1609 32.9796C13.1002 32.9796 13.0386 32.9772 12.9778 32.9732L12.3581 32.934C12.2957 32.6022 12.2597 32.2623 12.2525 31.9153C12.2429 31.4403 12.2861 30.9765 12.3773 30.5311L13.1305 30.5791C13.3161 30.5911 13.4408 30.4991 13.4984 30.4439C13.5552 30.3879 13.6503 30.2664 13.6431 30.0801L13.576 28.2505H15.9733L16.0405 29.9865C16.0717 30.8006 15.7558 31.593 15.1729 32.1608Z" fill="#FF127F"/>
<path d="M29.822 22.2177C29.8211 22.1521 29.8364 22.0265 29.9487 21.9227L31.2063 20.759L29.4915 18.9058L28.2339 20.0695C28.1097 20.1845 27.9967 20.3094 27.8956 20.4424C27.6532 20.7614 27.2801 20.9539 26.8797 20.9464L23.3722 20.9232V6.78049C22.9076 6.96361 22.4702 7.2003 22.068 7.48338C21.6658 7.2003 21.2284 6.96361 20.7638 6.78049V9.88617L19.0135 9.00911L17.9387 11.1539L20.7637 12.5696V20.9255L17.2376 20.9466C16.8371 20.954 16.4641 20.7615 16.2217 20.4426C16.1206 20.3095 16.0075 20.1846 15.8833 20.0696L14.6257 18.906L12.9109 20.7592L14.1684 21.9228C14.2807 22.0267 14.296 22.1523 14.2952 22.2179C14.2944 22.2835 14.2758 22.4087 14.1611 22.5097L12.9343 23.5886L14.6018 25.4845L15.8286 24.4055C15.9814 24.2711 16.1182 24.1219 16.238 23.9612C16.4637 23.6583 16.8189 23.4797 17.1965 23.4727L20.7637 23.4504V37.5894C21.2283 37.4063 21.6657 37.1696 22.0679 36.8865C22.4701 37.1696 22.9075 37.4063 23.3721 37.5894V35.0316L26.1215 33.6537L25.0467 31.5089L23.3721 32.3482V23.448L26.9208 23.4725C27.2984 23.4795 27.6536 23.6582 27.8792 23.961C27.999 24.1218 28.1358 24.2709 28.2886 24.4053L29.5154 25.4843L31.1829 23.5885L29.9561 22.5095C29.8413 22.4085 29.8228 22.2834 29.822 22.2177Z" fill="#00C2F3"/>
<path d="M29.9571 22.5096L31.1838 23.5883L29.5157 25.4843L28.2891 24.4056C28.1363 24.2712 27.9996 24.1217 27.8797 23.961C27.6542 23.6579 27.2991 23.4796 26.9217 23.4724L23.3728 23.4484V32.3485L25.0473 31.5089L26.122 33.6535L23.3728 35.0313V37.5894C22.9082 37.4063 22.4708 37.1696 22.0686 36.8865V7.48338C22.4708 7.2003 22.9082 6.96361 23.3728 6.78049V20.9231L26.8801 20.9463C27.2807 20.9543 27.6542 20.7616 27.8965 20.4425C27.9972 20.3098 28.11 20.1842 28.2347 20.0699L29.4926 18.9056L31.207 20.7592L29.9492 21.9227C29.8372 22.0266 29.822 22.1522 29.8228 22.2177C29.8236 22.2833 29.842 22.4088 29.9571 22.5096Z" fill="#FAD87C"/>
</svg>
