<svg width="101" height="101" viewBox="0 0 101 101" fill="none" xmlns="http://www.w3.org/2000/svg">
<g clip-path="url(#clip0_2:13536)">
<path d="M0 30.4778V92.5716C0 97.2218 3.76442 100.988 8.41673 100.988H92.5835C97.2316 100.988 101 97.222 101 92.5716V30.4778H0Z" fill="#F2F2F2"/>
<path d="M24.0822 47.5909H38.944V84.2981H31.0701V54.5769H24.0822V47.5909Z" fill="#40596B"/>
<path d="M61.7363 84.7191C56.661 84.7191 52.8631 82.9958 50.34 79.547C47.8213 76.0982 46.5588 71.4944 46.5588 65.7352C46.5588 59.9804 47.8213 55.3701 50.34 51.9235C52.8629 48.479 56.661 46.7514 61.7363 46.7514C66.8115 46.7514 70.6138 48.4788 73.1325 51.9235C75.6553 55.3723 76.9137 59.9804 76.9137 65.7352C76.9137 71.4944 75.6553 76.1003 73.1325 79.547C70.6138 82.9936 66.8115 84.7191 61.7363 84.7191ZM56.3286 56.8851C55.1734 59.1239 54.5948 62.0844 54.5948 65.7605C54.5948 69.4322 55.1734 72.3949 56.3286 74.6358C57.4838 76.8768 59.287 77.9982 61.7363 77.9982C64.1855 77.9982 65.9887 76.8768 67.1482 74.6358C68.3034 72.3971 68.8779 69.4322 68.8779 65.7605C68.8779 62.0844 68.3034 59.126 67.1482 56.8851C65.9889 54.6483 64.1855 53.5205 61.7363 53.5205C59.287 53.5205 57.4816 54.6483 56.3286 56.8851Z" fill="#40596B"/>
<path d="M92.5833 6H8.41673C3.76856 6 0 9.76856 0 14.4167V30.4905H101V14.4167C101 9.76856 97.2314 6 92.5833 6Z" fill="#FF7058"/>
<path d="M87.6279 18.2421C87.6279 21.531 84.964 24.197 81.6731 24.197C78.3842 24.197 75.7225 21.531 75.7225 18.2421C75.7225 14.9533 78.3864 12.2873 81.6731 12.2873C84.964 12.2873 87.6279 14.9533 87.6279 18.2421Z" fill="white"/>
<path d="M25.2837 18.2421C25.2837 21.531 22.6157 24.197 19.3288 24.197C16.042 24.197 13.3783 21.531 13.3783 18.2421C13.3783 14.9533 16.0422 12.2873 19.3288 12.2873C22.6155 12.2873 25.2837 14.9533 25.2837 18.2421Z" fill="white"/>
<path d="M81.7342 0.0116882C79.5479 0.0116882 77.7721 1.78333 77.7721 3.97377L77.7112 16.8175C77.7112 19.0058 79.4872 20.7796 81.6776 20.7796C83.8639 20.7796 85.6397 19.0058 85.6397 16.8175L85.7006 3.97377C85.7006 1.78333 83.9247 0.0116882 81.7342 0.0116882Z" fill="#40596B"/>
<path d="M19.3899 0.0116882C17.2036 0.0116882 15.4278 1.78333 15.4278 3.97377L15.3668 16.8156C15.3668 19.0038 17.1428 20.7776 19.3289 20.7776C21.5193 20.7776 23.291 19.0038 23.291 16.8156L23.3519 3.9718C23.3521 1.78333 21.5803 0.0116882 19.3899 0.0116882Z" fill="#40596B"/>
</g>
<defs>
<clipPath id="clip0_2:13536">
<rect width="101" height="101" fill="white"/>
</clipPath>
</defs>
</svg>
